<svg height="472pt" viewBox="0 -5 472.00022 472" width="472pt" xmlns="http://www.w3.org/2000/svg"><path d="m472 7.773438c-.011719-2.097657-.863281-4.101563-2.367188-5.566407-1.507812-1.460937-3.535156-2.253906-5.632812-2.20312475h-456c-2.097656-.05468745-4.128906.74218775-5.632812 2.20312475-1.503907 1.460938-2.3593755 3.46875-2.367188 5.566407v376.917968c-.0234375 4.476563 3.523438 8.164063 8 8.3125h109.660156l3.835938 8.609375c1.371094 3.089844 4.546875 4.972657 7.917968 4.691407l16.066407-1.21875c6.007812 7.460937 12.976562 14.09375 20.726562 19.722656l-.472656 16.023437c-.097656 3.390625 1.953125 6.476563 5.117187 7.695313l34.128907 13.175781c3.152343 1.214844 6.730469.320313 8.9375-2.242187l10.417969-12.074219c9.519531.886719 19.105468.640625 28.566406-.742188l11.152344 11.632813c2.324218 2.421875 5.90625 3.136718 8.980468 1.792968l33.53125-14.671874c3.105469-1.359376 5.019532-4.53125 4.769532-7.914063l-1.179688-16.066406c7.46875-6.007813 14.109375-12.980469 19.742188-20.734375l16.035156.472656c3.367187.179688 6.472656-1.820312 7.699218-4.960938l1.292969-3.191406h109.074219c4.476562-.152344 8.023438-3.835937 8-8.3125v-292.109375c0-.027343 0-.050781 0-.078125s0-.050781 0-.078125zm-16 8.230468v69h-440v-69zm-129.953125 368.558594c-2.757813-.089844-5.367187 1.257812-6.890625 3.558594-5.953125 8.9375-13.414062 16.773437-22.050781 23.15625-2.207031 1.628906-3.421875 4.28125-3.222657 7.015625l1.082032 14.710937-23.226563 10.160156-10.199219-10.636718c-1.859374-1.941406-4.570312-2.816406-7.214843-2.332032-10.644531 1.949219-21.527344 2.230469-32.257813.832032-2.667968-.347656-5.332031.671875-7.085937 2.707031l-9.492188 11-23.589843-9.097656.433593-14.703125c.082031-2.753906-1.265625-5.359375-3.558593-6.890625-8.9375-5.953125-16.773438-13.414063-23.15625-22.050781-1.632813-2.203126-4.28125-3.417969-7.015626-3.21875l-14.714843 1.078124-3.164063-7.230468c-.207031-.777344-.53125-1.523438-.964844-2.207032l-6.03125-13.789062 10.636719-10.199219c1.941407-1.859375 2.816407-4.570312 2.332031-7.210937-1.949218-10.644532-2.230468-21.527344-.832031-32.257813.34375-2.667969-.671875-5.332031-2.707031-7.089843l-11-9.492188 9.097656-23.589844 14.703125.433594c2.757813.089844 5.367188-1.257812 6.890625-3.558594 5.953125-8.941406 13.414063-16.777344 22.050782-23.15625 2.207031-1.632812 3.421874-4.28125 3.222656-7.019531l-1.082032-14.710937 23.226563-10.160157 10.203125 10.636719c1.859375 1.941406 4.570312 2.816406 7.210938 2.332031 10.648437-1.949219 21.53125-2.230469 32.261718-.832031 2.667969.34375 5.332032-.671875 7.089844-2.707031l9.492188-11 23.589843 9.097656-.433593 14.699219c-.082032 2.757812 1.261718 5.363281 3.558593 6.894531 8.9375 5.949219 16.773438 13.414063 23.152344 22.050781 1.632813 2.203125 4.28125 3.417969 7.015625 3.21875l14.710938-1.082031 10.164062 23.226563-10.640625 10.199218c-1.9375 1.859375-2.8125 4.570313-2.332031 7.210938 1.949218 10.644531 2.230468 21.527344.835937 32.257812-.347656 2.667969.667969 5.332032 2.707031 7.089844l11 9.492188-9.105468 23.589843zm35.054687-7.558594 5.699219-14.9375c1.214844-3.175781.324219-6.773437-2.238281-9.015625l-12.074219-10.457031c.890625-9.523438.644531-19.121094-.738281-28.585938l11.632812-11.164062c2.417969-2.324219 3.132813-5.910156 1.789063-8.984375l-14.667969-33.53125c-1.359375-3.109375-4.53125-5.023437-7.914062-4.773437l-16.070313 1.179687c-6.003906-7.46875-12.96875-14.109375-20.71875-19.746094l.472657-16.035156c.097656-3.390625-1.953126-6.476563-5.117188-7.699219l-34.128906-13.171875c-3.152344-1.214843-6.730469-.320312-8.9375 2.238281l-10.421875 12.082032c-9.519531-.890625-19.109375-.644532-28.570313.738281l-11.152344-11.636719c-2.320312-2.421875-5.90625-3.136718-8.980468-1.792968l-33.53125 14.667968c-3.105469 1.359375-5.019532 4.535156-4.769532 7.917969l1.179688 16.066406c-7.46875 6.007813-14.105469 12.980469-19.742188 20.730469l-16.035156-.46875c-3.394531-.109375-6.484375 1.941406-7.699218 5.113281l-13.167969 34.128907c-1.214844 3.152343-.320313 6.730468 2.238281 8.9375l12.078125 10.421874c-.890625 9.515626-.644531 19.105469.738281 28.5625l-11.628906 11.15625c-2.425781 2.382813-3.136719 6.011719-1.792969 9.136719l3.828125 8.921875h-94.660156v-276h440v276zm0 0"/><path d="m103.308594 75.375c13.402344 0 24.308594-11.261719 24.308594-25.105469s-10.902344-25.101562-24.308594-25.101562-24.308594 11.257812-24.308594 25.101562 10.90625 25.105469 24.308594 25.105469zm0-34.210938c4.582031 0 8.308594 4.085938 8.308594 9.101563s-3.726563 9.105469-8.308594 9.105469c-4.578125 0-8.308594-4.082032-8.308594-9.101563s3.730469-9.105469 8.308594-9.105469zm0 0"/><path d="m156.300781 75.375c13.398438 0 24.304688-11.261719 24.304688-25.105469s-10.898438-25.101562-24.304688-25.101562-24.300781 11.257812-24.300781 25.101562 10.898438 25.105469 24.300781 25.105469zm0-34.210938c4.578125 0 8.304688 4.085938 8.304688 9.101563s-3.726563 9.105469-8.304688 9.105469c-4.582031 0-8.300781-4.082032-8.300781-9.101563s3.722656-9.105469 8.300781-9.105469zm0 0"/><path d="m50.316406 75.375c13.402344 0 24.308594-11.261719 24.308594-25.105469s-10.902344-25.101562-24.308594-25.101562-24.304687 11.261719-24.304687 25.101562c0 13.839844 10.902343 25.105469 24.304687 25.105469zm0-34.210938c4.578125 0 8.308594 4.085938 8.308594 9.101563s-3.730469 9.105469-8.308594 9.105469-8.304687-4.085938-8.304687-9.105469c0-5.023437 3.726562-9.101563 8.304687-9.101563zm0 0"/><path d="m236 253.917969c-42.507812 0-76.96875 34.460937-76.96875 76.972656 0 42.507813 34.460938 76.96875 76.96875 76.96875s76.96875-34.460937 76.96875-76.96875c-.046875-42.492187-34.480469-76.921875-76.96875-76.972656zm0 137.941406c-33.671875 0-60.96875-27.296875-60.96875-60.96875 0-33.675781 27.296875-60.972656 60.96875-60.972656s60.96875 27.296875 60.96875 60.972656c-.035156 33.65625-27.3125 60.929687-60.96875 60.96875zm0 0"/><path d="m236 292.441406c-21.234375 0-38.449219 17.214844-38.449219 38.449219 0 21.230469 17.214844 38.445313 38.449219 38.445313s38.445312-17.210938 38.445312-38.445313c-.023437-21.222656-17.222656-38.421875-38.445312-38.449219zm0 60.894532c-12.398438 0-22.449219-10.050782-22.449219-22.445313 0-12.398437 10.050781-22.449219 22.449219-22.449219s22.445312 10.050782 22.445312 22.449219c-.011718 12.390625-10.054687 22.429687-22.445312 22.445313zm0 0"/></svg>