<?xml version="1.0" encoding="iso-8859-1"?>
<!-- Generator: Adobe Illustrator 19.0.0, SVG Export Plug-In . SVG Version: 6.00 Build 0)  -->
<svg version="1.1" id="Capa_1" xmlns="http://www.w3.org/2000/svg" xmlns:xlink="http://www.w3.org/1999/xlink" x="0px" y="0px"
	 viewBox="0 0 453.656 453.656" style="enable-background:new 0 0 453.656 453.656;" xml:space="preserve">
<g>
	<g>
		<path d="M350.512,0h-80h-176c-4.418,0-8,3.582-8,8v176c0,4.418,3.582,8,8,8h16v48c-0.005,0.221-0.005,0.442,0,0.663
			c0.183,8.653,7.347,15.52,16,15.337h48v24h-56c-2.122,0-4.156,0.844-5.656,2.344l-96,96l11.312,11.312L121.824,296h187.888
			c-1.664,9.496-6.888,24-23.2,24h-88v16h88c31.64,0,40-31.4,40-48c0-4.418-3.582-8-8-8h-48v-24h48c0.221,0.005,0.442,0.005,0.663,0
			c8.654-0.183,15.52-7.347,15.337-16v-48h16c4.418,0,8-3.582,8-8V8C358.512,3.582,354.93,0,350.512,0z M102.512,176V16h160v160
			H102.512z M318.512,240h-56c-4.418,0-8,3.582-8,8v32h-24v-72h-16v72h-24v-32c0-4.418-3.581-8-8-8h-56v-48h144h48V240z
			 M342.512,176h-64V16h64V176z"/>
	</g>
</g>
<g>
	<g>
		<path d="M420.168,226.336c-3.124-3.123-8.188-3.123-11.312,0l-72,72l11.312,11.312l65.712-65.704
			c10.832,14.369,8.632,34.682-5.024,46.4L315.2,384H150.512c-2.122,0-4.156,0.844-5.656,2.344l-56,56l11.312,11.312L153.824,400
			h164.688c2.123-0.003,4.157-0.849,5.656-2.352l96-96C449.96,271.864,433.192,239.36,420.168,226.336z"/>
	</g>
</g>
<g>
	<g>
		<path d="M126.512,32c-4.418,0-8,3.582-8,8v24h16V48h16V32H126.512z"/>
	</g>
</g>
<g>
	<g>
		<path d="M230.512,128v16h-16v16h24c4.418,0,8-3.582,8-8v-24H230.512z"/>
	</g>
</g>
<g>
	<g>
		<polygon points="190.512,88 190.512,72 174.512,72 174.512,88 158.512,88 158.512,104 174.512,104 174.512,120 190.512,120 
			190.512,104 206.512,104 206.512,88 		"/>
	</g>
</g>
<g>
	<g>
		<rect x="254.51" y="208" width="16" height="16"/>
	</g>
</g>
<g>
	<g>
		<rect x="286.51" y="208" width="16" height="16"/>
	</g>
</g>
<g>
	<g>
		<rect x="142.51" y="208" width="16" height="16"/>
	</g>
</g>
<g>
	<g>
		<rect x="174.51" y="208" width="16" height="16"/>
	</g>
</g>
<g>
</g>
<g>
</g>
<g>
</g>
<g>
</g>
<g>
</g>
<g>
</g>
<g>
</g>
<g>
</g>
<g>
</g>
<g>
</g>
<g>
</g>
<g>
</g>
<g>
</g>
<g>
</g>
<g>
</g>
</svg>
