<?xml version="1.0"?>
<svg xmlns="http://www.w3.org/2000/svg" viewBox="0 0 64 64" width="512" height="512"><g id="Optimization"><rect x="12" y="6" width="2" height="2"/><rect x="16" y="6" width="2" height="2"/><rect x="20" y="6" width="2" height="2"/><path d="M59,2H9A3,3,0,0,0,6,5V8H5a3,3,0,0,0-3,3V59a3,3,0,0,0,3,3H53a3,3,0,0,0,3-3V58h3a3,3,0,0,0,3-3V5A3,3,0,0,0,59,2ZM9,4H59a1,1,0,0,1,1,1v5H8V5A1,1,0,0,1,9,4ZM5,10H6v6H4V11A1,1,0,0,1,5,10ZM54,59a1,1,0,0,1-1,1H5a1,1,0,0,1-1-1V18H6V55a3,3,0,0,0,3,3H54Zm5-3H9a1,1,0,0,1-1-1V12H60V55A1,1,0,0,1,59,56Z"/><path d="M34,14A20,20,0,1,0,54,34,20.023,20.023,0,0,0,34,14Zm0,38A18.006,18.006,0,0,1,16.051,35H18V33H16.051a17.9,17.9,0,0,1,4.554-10.981l1.374,1.375,1.415-1.415-1.375-1.374A17.9,17.9,0,0,1,33,16.051V18h2V16.051a17.9,17.9,0,0,1,10.981,4.554l-1.375,1.374,1.415,1.415L47.4,22.019A17.9,17.9,0,0,1,51.949,33H50v2h1.949A18.006,18.006,0,0,1,34,52Z"/><rect x="26" y="6" width="26" height="2"/><path d="M47.142,31.01l-2.682-.383a10.96,10.96,0,0,0-.678-1.639l1.624-2.166a1,1,0,0,0-.093-1.307l-2.828-2.828a1,1,0,0,0-1.307-.093l-2.166,1.624a11,11,0,0,0-1.639-.678l-.383-2.682A1,1,0,0,0,36,20H32a1,1,0,0,0-.99.858l-.383,2.682a10.96,10.96,0,0,0-1.639.678l-2.166-1.624a1,1,0,0,0-1.307.093l-2.828,2.828a1,1,0,0,0-.093,1.307l1.624,2.166a10.96,10.96,0,0,0-.678,1.639l-2.682.383A1,1,0,0,0,20,32v4a1,1,0,0,0,.858.99l2.682.383a10.96,10.96,0,0,0,.678,1.639l-1.624,2.166a1,1,0,0,0,.093,1.307l2.828,2.828a1,1,0,0,0,1.307.093l2.166-1.624a10.96,10.96,0,0,0,1.639.678l.383,2.682A1,1,0,0,0,32,48h4a1,1,0,0,0,.99-.858l.383-2.682a11,11,0,0,0,1.639-.678l2.166,1.624a1,1,0,0,0,1.307-.093l2.828-2.828a1,1,0,0,0,.093-1.307l-1.624-2.166a10.96,10.96,0,0,0,.678-1.639l2.682-.383A1,1,0,0,0,48,36V32A1,1,0,0,0,47.142,31.01ZM46,35.133l-2.463.352a1,1,0,0,0-.828.743,8.892,8.892,0,0,1-.975,2.356,1,1,0,0,0,.06,1.111l1.492,1.99-1.6,1.6L39.7,41.794a1,1,0,0,0-1.111-.06,8.892,8.892,0,0,1-2.356.975,1,1,0,0,0-.743.828L35.133,46H32.867l-.352-2.463a1,1,0,0,0-.743-.828,8.892,8.892,0,0,1-2.356-.975,1,1,0,0,0-1.111.06l-1.99,1.492-1.6-1.6,1.492-1.99a1,1,0,0,0,.06-1.111,8.892,8.892,0,0,1-.975-2.356,1,1,0,0,0-.828-.743L22,35.133V32.867l2.463-.352a1,1,0,0,0,.828-.743,8.892,8.892,0,0,1,.975-2.356,1,1,0,0,0-.06-1.111l-1.492-1.99,1.6-1.6,1.99,1.492a1,1,0,0,0,1.111.06,8.892,8.892,0,0,1,2.356-.975,1,1,0,0,0,.743-.828L32.867,22h2.266l.352,2.463a1,1,0,0,0,.743.828,8.892,8.892,0,0,1,2.356.975,1,1,0,0,0,1.111-.06l1.99-1.492,1.6,1.6-1.492,1.99a1,1,0,0,0-.06,1.111,8.892,8.892,0,0,1,.975,2.356,1,1,0,0,0,.828.743L46,32.867Z"/><path d="M35,31.184V27H33v4.184a3,3,0,1,0,2,0ZM34,35a1,1,0,1,1,1-1A1,1,0,0,1,34,35Z"/></g></svg>
